<svg height="496pt" viewBox="0 0 496 496" width="496pt" xmlns="http://www.w3.org/2000/svg"><path d="m464 136h-80v-64h51.3125l28.6875 28.6875zm0 0" fill="#f0bc5e"/><path d="m451.3125 40h-83.3125v-16c0-13.230469-10.769531-24-24-24h-208c-13.230469 0-24 10.769531-24 24v145.601562h16v-145.601562c0-4.40625 3.59375-8 8-8h208c4.40625 0 8 3.59375 8 8v168h-80.246094c-6.664062-4.960938-14.832031-8-23.753906-8-22.054688 0-40 17.945312-40 40s17.945312 40 40 40c16.359375 0 30.414062-9.894531 36.609375-24h102.78125c6.195313 14.105469 20.25 24 36.609375 24s30.414062-9.894531 36.609375-24h11.390625c13.230469 0 24-10.769531 24-24v-131.3125zm-83.3125 16h76.6875l35.3125 35.3125v100.6875h-32.246094c-6.664062-4.960938-14.832031-8-23.753906-8s-17.089844 3.039062-23.753906 8h-32.246094zm-120 192c-13.230469 0-24-10.769531-24-24s10.769531-24 24-24 24 10.769531 24 24-10.769531 24-24 24zm36.609375-40h67.390625v16h-64c0-5.695312-1.230469-11.089844-3.390625-16zm83.390625 16v-16h19.390625c-2.160156 4.910156-3.390625 10.304688-3.390625 16zm56 24c-13.230469 0-24-10.769531-24-24s10.769531-24 24-24 24 10.769531 24 24-10.769531 24-24 24zm48-24h-8c0-5.695312-1.230469-11.089844-3.390625-16h19.390625v8c0 4.40625-3.59375 8-8 8zm0 0"/><path d="m432 224c0 4.417969-3.582031 8-8 8s-8-3.582031-8-8 3.582031-8 8-8 8 3.582031 8 8zm0 0"/><path d="m256 224c0 4.417969-3.582031 8-8 8s-8-3.582031-8-8 3.582031-8 8-8 8 3.582031 8 8zm0 0"/><path d="m336 32h-192v144h192zm-112 16h32v16h-32zm32 112h-32v-16h32zm64 0h-48v-32h-64v32h-48v-112h48v32h64v-32h48zm0 0"/><path d="m136 160c-48.519531 0-88 39.480469-88 88v48h8c0-13.257812 10.742188-24 24-24v1.886719c0-10.957031 6.191406-20.984375 16-25.886719 20.769531 15.574219 46.03125 24 72 24h24c13.257812 0 24 10.742188 24 24h8v-48c0-48.519531-39.480469-88-88-88zm0 0" fill="#f0bc5e"/><path d="m384 496c-61.761719 0-112-50.238281-112-112s50.238281-112 112-112 112 50.238281 112 112-50.238281 112-112 112zm0 0" fill="#f0bc5e"/><path d="m370.304688 460.089844-47.304688-37.84375 10-12.492188 32.695312 26.15625 59.359376-103.878906 13.890624 7.9375zm0 0"/><path d="m241 402.480469-73-16.839844v-18.296875c14.800781-8.589844 25.824219-22.929688 30.046875-39.953125 14.761719-2.847656 25.953125-15.816406 25.953125-31.390625 0-14.863281-10.238281-27.289062-24-30.863281v-17.136719h-16v16h-16c-24.070312 0-47.9375-7.960938-67.199219-22.398438l-3.960937-2.96875-4.425782 2.207032c-9.789062 4.894531-16.636718 13.65625-19.230468 23.921875-14.367188 3.140625-25.183594 15.933593-25.183594 31.238281 0 15.574219 11.191406 28.542969 25.953125 31.390625 4.222656 17.023437 15.246094 31.363281 30.046875 39.953125v18.296875l-72.992188 16.839844c-18.253906 4.207031-31.007812 20.238281-31.007812 38.976562v54.542969h272v-54.542969c0-18.738281-12.753906-34.769531-31-38.976562zm-33-106.480469c0 5.894531-3.238281 11-8 13.777344v-27.554688c4.761719 2.777344 8 7.882813 8 13.777344zm-144 0c0-5.894531 3.238281-11 8-13.777344v27.554688c-4.761719-2.777344-8-7.882813-8-13.777344zm24 16v-38.113281c0-6.421875 2.871094-12.328125 7.71875-16.246094 21.167969 14.457031 46.625 22.359375 72.28125 22.359375h16v32c0 26.472656-21.527344 48-48 48s-48-21.527344-48-48zm48 64c5.535156 0 10.871094-.777344 16-2.105469v15.441407l-16 21.335937-16-21.335937v-15.441407c5.128906 1.328125 10.464844 2.105469 16 2.105469zm120 104h-48v-32h-16v32h-112v-32h-16v32h-48v-38.542969c0-11.242187 7.648438-20.855469 18.609375-23.386719l74.117187-17.109374 27.273438 36.375 27.273438-36.367188 74.117187 17.109375c10.960937 2.523437 18.609375 12.136719 18.609375 23.378906zm0 0"/></svg>